<svg width="203" height="124" viewBox="0 0 203 124" fill="none" xmlns="http://www.w3.org/2000/svg">
<path d="M77.2842 114.182C77.4326 114.627 77.5254 114.979 77.5625 115.239C77.5996 115.499 77.5501 115.697 77.4141 115.833C77.278 115.957 77.0368 116.031 76.6904 116.056C76.3441 116.093 75.8678 116.111 75.2617 116.111C74.6309 116.111 74.1361 116.099 73.7773 116.074C73.431 116.062 73.165 116.031 72.9795 115.981C72.7939 115.92 72.6641 115.839 72.5898 115.74C72.5156 115.641 72.4538 115.511 72.4043 115.351L70.79 110.526H61.7725L60.251 115.221C60.2015 115.394 60.1335 115.542 60.0469 115.666C59.9727 115.777 59.8428 115.87 59.6572 115.944C59.484 116.006 59.2305 116.049 58.8965 116.074C58.5749 116.099 58.1481 116.111 57.6162 116.111C57.0472 116.111 56.6019 116.093 56.2803 116.056C55.9587 116.019 55.736 115.932 55.6123 115.796C55.4886 115.647 55.4453 115.443 55.4824 115.184C55.5195 114.924 55.6123 114.577 55.7607 114.145L63.1641 92.8438C63.2383 92.6335 63.3249 92.4665 63.4238 92.3428C63.5228 92.2067 63.6774 92.1077 63.8877 92.0459C64.1104 91.9717 64.4134 91.9284 64.7969 91.916C65.1803 91.8913 65.6875 91.8789 66.3184 91.8789C67.0482 91.8789 67.6296 91.8913 68.0625 91.916C68.4954 91.9284 68.8294 91.9717 69.0645 92.0459C69.3118 92.1077 69.485 92.2067 69.584 92.3428C69.6953 92.4788 69.7881 92.6644 69.8623 92.8994L77.2842 114.182ZM66.2627 96.5732H66.2441L62.8486 106.778H69.6582L66.2627 96.5732ZM85.0586 115.369C85.0586 115.493 85.0215 115.604 84.9473 115.703C84.873 115.79 84.7432 115.864 84.5576 115.926C84.3844 115.988 84.1494 116.031 83.8525 116.056C83.5557 116.093 83.1784 116.111 82.7207 116.111C82.263 116.111 81.8857 116.093 81.5889 116.056C81.292 116.031 81.0508 115.988 80.8652 115.926C80.6921 115.864 80.5684 115.79 80.4941 115.703C80.4199 115.604 80.3828 115.493 80.3828 115.369V90.9697C80.3828 90.846 80.4199 90.7347 80.4941 90.6357C80.5684 90.5368 80.6921 90.4564 80.8652 90.3945C81.0508 90.3203 81.292 90.2646 81.5889 90.2275C81.8857 90.1904 82.263 90.1719 82.7207 90.1719C83.1784 90.1719 83.5557 90.1904 83.8525 90.2275C84.1494 90.2646 84.3844 90.3203 84.5576 90.3945C84.7432 90.4564 84.873 90.5368 84.9473 90.6357C85.0215 90.7347 85.0586 90.846 85.0586 90.9697V115.369ZM103.836 115.425C103.836 115.598 103.774 115.734 103.65 115.833C103.527 115.932 103.329 116 103.057 116.037C102.797 116.087 102.407 116.111 101.888 116.111C101.331 116.111 100.923 116.087 100.663 116.037C100.416 116 100.236 115.932 100.125 115.833C100.026 115.734 99.9766 115.598 99.9766 115.425V114.107C99.2962 114.837 98.5169 115.406 97.6387 115.814C96.7728 116.223 95.8079 116.427 94.7441 116.427C93.8659 116.427 93.0557 116.309 92.3135 116.074C91.5837 115.852 90.9466 115.518 90.4023 115.072C89.8704 114.615 89.4561 114.052 89.1592 113.384C88.8623 112.716 88.7139 111.937 88.7139 111.046C88.7139 110.081 88.8994 109.246 89.2705 108.541C89.654 107.824 90.2168 107.236 90.959 106.778C91.7135 106.308 92.6475 105.962 93.7607 105.739C94.874 105.517 96.1667 105.405 97.6387 105.405H99.2529V104.403C99.2529 103.884 99.1973 103.432 99.0859 103.049C98.987 102.653 98.8138 102.325 98.5664 102.065C98.3314 101.806 98.0098 101.614 97.6016 101.49C97.2057 101.367 96.7109 101.305 96.1172 101.305C95.3379 101.305 94.639 101.391 94.0205 101.564C93.4144 101.738 92.8763 101.929 92.4062 102.14C91.9362 102.35 91.5404 102.542 91.2188 102.715C90.9095 102.888 90.6559 102.975 90.458 102.975C90.3219 102.975 90.1982 102.931 90.0869 102.845C89.988 102.758 89.9014 102.634 89.8271 102.474C89.7653 102.313 89.7158 102.115 89.6787 101.88C89.6416 101.645 89.623 101.385 89.623 101.101C89.623 100.717 89.654 100.414 89.7158 100.191C89.7777 99.9688 89.8952 99.7708 90.0684 99.5977C90.2415 99.4121 90.5446 99.2142 90.9775 99.0039C91.4105 98.7812 91.9176 98.5771 92.499 98.3916C93.0804 98.2061 93.7113 98.0576 94.3916 97.9463C95.0843 97.8226 95.7956 97.7607 96.5254 97.7607C97.8242 97.7607 98.9313 97.8906 99.8467 98.1504C100.774 98.3978 101.535 98.7874 102.129 99.3193C102.723 99.8389 103.156 100.513 103.428 101.342C103.7 102.171 103.836 103.154 103.836 104.292V115.425ZM99.2529 108.337H97.4717C96.7171 108.337 96.0739 108.393 95.542 108.504C95.0101 108.615 94.5771 108.782 94.2432 109.005C93.9092 109.228 93.6618 109.5 93.501 109.821C93.3525 110.131 93.2783 110.489 93.2783 110.897C93.2783 111.59 93.4948 112.134 93.9277 112.53C94.373 112.926 94.9854 113.124 95.7646 113.124C96.4202 113.124 97.0202 112.957 97.5645 112.623C98.1211 112.289 98.6839 111.8 99.2529 111.157V108.337ZM119.144 100.358C119.144 100.804 119.131 101.169 119.106 101.453C119.082 101.738 119.045 101.96 118.995 102.121C118.946 102.282 118.878 102.393 118.791 102.455C118.717 102.517 118.618 102.548 118.494 102.548C118.395 102.548 118.284 102.529 118.16 102.492C118.036 102.443 117.894 102.393 117.733 102.344C117.585 102.294 117.418 102.251 117.232 102.214C117.047 102.164 116.843 102.14 116.62 102.14C116.36 102.14 116.101 102.195 115.841 102.307C115.581 102.406 115.309 102.566 115.024 102.789C114.752 103.012 114.462 103.309 114.152 103.68C113.855 104.051 113.534 104.508 113.188 105.053V115.369C113.188 115.493 113.15 115.604 113.076 115.703C113.002 115.79 112.872 115.864 112.687 115.926C112.513 115.988 112.278 116.031 111.981 116.056C111.685 116.093 111.307 116.111 110.85 116.111C110.392 116.111 110.015 116.093 109.718 116.056C109.421 116.031 109.18 115.988 108.994 115.926C108.821 115.864 108.697 115.79 108.623 115.703C108.549 115.604 108.512 115.493 108.512 115.369V98.8184C108.512 98.6947 108.543 98.5895 108.604 98.5029C108.666 98.404 108.778 98.3236 108.938 98.2617C109.099 98.1999 109.303 98.1566 109.551 98.1318C109.811 98.0947 110.132 98.0762 110.516 98.0762C110.911 98.0762 111.239 98.0947 111.499 98.1318C111.759 98.1566 111.957 98.1999 112.093 98.2617C112.241 98.3236 112.346 98.404 112.408 98.5029C112.47 98.5895 112.501 98.6947 112.501 98.8184V100.878C112.934 100.259 113.342 99.7523 113.726 99.3564C114.109 98.9482 114.474 98.6266 114.82 98.3916C115.167 98.1566 115.513 97.9958 115.859 97.9092C116.206 97.8102 116.552 97.7607 116.898 97.7607C117.059 97.7607 117.232 97.7731 117.418 97.7979C117.604 97.8102 117.795 97.8411 117.993 97.8906C118.191 97.9277 118.364 97.9772 118.513 98.0391C118.661 98.0885 118.766 98.1442 118.828 98.2061C118.902 98.2679 118.952 98.3359 118.977 98.4102C119.014 98.4844 119.045 98.5895 119.069 98.7256C119.094 98.8493 119.113 99.041 119.125 99.3008C119.137 99.5605 119.144 99.9131 119.144 100.358ZM148.349 115.369C148.349 115.493 148.312 115.604 148.237 115.703C148.163 115.79 148.039 115.864 147.866 115.926C147.693 115.988 147.458 116.031 147.161 116.056C146.864 116.093 146.487 116.111 146.029 116.111C145.559 116.111 145.176 116.093 144.879 116.056C144.582 116.031 144.341 115.988 144.155 115.926C143.982 115.864 143.858 115.79 143.784 115.703C143.722 115.604 143.691 115.493 143.691 115.369V105.554C143.691 104.997 143.636 104.49 143.524 104.032C143.425 103.575 143.265 103.185 143.042 102.863C142.832 102.529 142.56 102.276 142.226 102.103C141.904 101.917 141.514 101.824 141.057 101.824C140.5 101.824 139.937 102.041 139.368 102.474C138.799 102.907 138.181 103.537 137.513 104.366V115.369C137.513 115.493 137.476 115.604 137.401 115.703C137.327 115.79 137.197 115.864 137.012 115.926C136.839 115.988 136.604 116.031 136.307 116.056C136.01 116.093 135.639 116.111 135.193 116.111C134.736 116.111 134.358 116.093 134.062 116.056C133.765 116.031 133.523 115.988 133.338 115.926C133.165 115.864 133.041 115.79 132.967 115.703C132.893 115.604 132.855 115.493 132.855 115.369V105.554C132.855 104.997 132.8 104.49 132.688 104.032C132.59 103.575 132.435 103.185 132.225 102.863C132.014 102.529 131.742 102.276 131.408 102.103C131.074 101.917 130.685 101.824 130.239 101.824C129.67 101.824 129.101 102.041 128.532 102.474C127.963 102.907 127.351 103.537 126.695 104.366V115.369C126.695 115.493 126.658 115.604 126.584 115.703C126.51 115.79 126.38 115.864 126.194 115.926C126.021 115.988 125.786 116.031 125.489 116.056C125.192 116.093 124.815 116.111 124.357 116.111C123.9 116.111 123.522 116.093 123.226 116.056C122.929 116.031 122.688 115.988 122.502 115.926C122.329 115.864 122.205 115.79 122.131 115.703C122.057 115.604 122.02 115.493 122.02 115.369V98.8184C122.02 98.6947 122.05 98.5895 122.112 98.5029C122.174 98.404 122.285 98.3236 122.446 98.2617C122.607 98.1999 122.811 98.1566 123.059 98.1318C123.318 98.0947 123.64 98.0762 124.023 98.0762C124.419 98.0762 124.747 98.0947 125.007 98.1318C125.267 98.1566 125.465 98.1999 125.601 98.2617C125.749 98.3236 125.854 98.404 125.916 98.5029C125.978 98.5895 126.009 98.6947 126.009 98.8184V100.729C126.924 99.7399 127.833 98.9977 128.736 98.5029C129.652 98.0081 130.604 97.7607 131.594 97.7607C132.274 97.7607 132.886 97.835 133.431 97.9834C133.975 98.1195 134.457 98.3236 134.878 98.5957C135.311 98.8555 135.682 99.1709 135.991 99.542C136.3 99.9131 136.56 100.327 136.771 100.785C137.265 100.253 137.748 99.7956 138.218 99.4121C138.7 99.0286 139.17 98.7194 139.628 98.4844C140.098 98.237 140.562 98.0576 141.02 97.9463C141.49 97.8226 141.966 97.7607 142.448 97.7607C143.549 97.7607 144.477 97.9463 145.231 98.3174C145.986 98.6885 146.592 99.1956 147.05 99.8389C147.52 100.47 147.854 101.212 148.052 102.065C148.25 102.919 148.349 103.822 148.349 104.774V115.369ZM169.668 106.927C169.668 108.337 169.482 109.623 169.111 110.786C168.74 111.949 168.177 112.951 167.423 113.792C166.668 114.633 165.722 115.283 164.584 115.74C163.446 116.198 162.116 116.427 160.595 116.427C159.123 116.427 157.842 116.223 156.754 115.814C155.665 115.406 154.762 114.812 154.045 114.033C153.327 113.254 152.796 112.295 152.449 111.157C152.103 110.019 151.93 108.72 151.93 107.261C151.93 105.851 152.115 104.564 152.486 103.401C152.87 102.226 153.439 101.224 154.193 100.396C154.948 99.5544 155.888 98.9049 157.014 98.4473C158.152 97.9896 159.481 97.7607 161.003 97.7607C162.487 97.7607 163.774 97.9648 164.862 98.373C165.951 98.7689 166.848 99.3564 167.553 100.136C168.27 100.915 168.802 101.874 169.148 103.012C169.495 104.15 169.668 105.455 169.668 106.927ZM164.862 107.112C164.862 106.296 164.794 105.548 164.658 104.867C164.535 104.174 164.318 103.575 164.009 103.067C163.7 102.56 163.285 102.164 162.766 101.88C162.258 101.595 161.615 101.453 160.836 101.453C160.143 101.453 159.537 101.583 159.018 101.843C158.498 102.09 158.071 102.461 157.737 102.956C157.403 103.438 157.15 104.026 156.977 104.719C156.816 105.399 156.735 106.178 156.735 107.057C156.735 107.873 156.803 108.628 156.939 109.32C157.076 110.001 157.292 110.594 157.589 111.102C157.898 111.609 158.312 112.005 158.832 112.289C159.352 112.561 159.995 112.697 160.762 112.697C161.467 112.697 162.079 112.574 162.599 112.326C163.118 112.066 163.545 111.695 163.879 111.213C164.213 110.73 164.46 110.149 164.621 109.469C164.782 108.776 164.862 107.991 164.862 107.112ZM184.011 100.358C184.011 100.804 183.998 101.169 183.974 101.453C183.949 101.738 183.912 101.96 183.862 102.121C183.813 102.282 183.745 102.393 183.658 102.455C183.584 102.517 183.485 102.548 183.361 102.548C183.262 102.548 183.151 102.529 183.027 102.492C182.904 102.443 182.761 102.393 182.601 102.344C182.452 102.294 182.285 102.251 182.1 102.214C181.914 102.164 181.71 102.14 181.487 102.14C181.228 102.14 180.968 102.195 180.708 102.307C180.448 102.406 180.176 102.566 179.892 102.789C179.619 103.012 179.329 103.309 179.02 103.68C178.723 104.051 178.401 104.508 178.055 105.053V115.369C178.055 115.493 178.018 115.604 177.943 115.703C177.869 115.79 177.739 115.864 177.554 115.926C177.381 115.988 177.146 116.031 176.849 116.056C176.552 116.093 176.174 116.111 175.717 116.111C175.259 116.111 174.882 116.093 174.585 116.056C174.288 116.031 174.047 115.988 173.861 115.926C173.688 115.864 173.564 115.79 173.49 115.703C173.416 115.604 173.379 115.493 173.379 115.369V98.8184C173.379 98.6947 173.41 98.5895 173.472 98.5029C173.534 98.404 173.645 98.3236 173.806 98.2617C173.966 98.1999 174.171 98.1566 174.418 98.1318C174.678 98.0947 174.999 98.0762 175.383 98.0762C175.779 98.0762 176.106 98.0947 176.366 98.1318C176.626 98.1566 176.824 98.1999 176.96 98.2617C177.108 98.3236 177.214 98.404 177.275 98.5029C177.337 98.5895 177.368 98.6947 177.368 98.8184V100.878C177.801 100.259 178.209 99.7523 178.593 99.3564C178.976 98.9482 179.341 98.6266 179.688 98.3916C180.034 98.1566 180.38 97.9958 180.727 97.9092C181.073 97.8102 181.419 97.7607 181.766 97.7607C181.926 97.7607 182.1 97.7731 182.285 97.7979C182.471 97.8102 182.662 97.8411 182.86 97.8906C183.058 97.9277 183.231 97.9772 183.38 98.0391C183.528 98.0885 183.633 98.1442 183.695 98.2061C183.77 98.2679 183.819 98.3359 183.844 98.4102C183.881 98.4844 183.912 98.5895 183.937 98.7256C183.961 98.8493 183.98 99.041 183.992 99.3008C184.005 99.5605 184.011 99.9131 184.011 100.358ZM196.665 116L194.661 121.863C194.55 122.173 194.247 122.395 193.752 122.531C193.257 122.667 192.534 122.735 191.581 122.735C191.086 122.735 190.69 122.711 190.394 122.661C190.097 122.624 189.874 122.556 189.726 122.457C189.577 122.358 189.497 122.234 189.484 122.086C189.472 121.938 189.509 121.758 189.596 121.548L191.804 116C191.643 115.926 191.494 115.814 191.358 115.666C191.235 115.505 191.142 115.338 191.08 115.165L185.384 99.9502C185.223 99.5173 185.143 99.1895 185.143 98.9668C185.143 98.7318 185.217 98.5524 185.365 98.4287C185.514 98.2926 185.761 98.1999 186.107 98.1504C186.466 98.1009 186.936 98.0762 187.518 98.0762C188.049 98.0762 188.47 98.0885 188.779 98.1133C189.089 98.1257 189.33 98.1689 189.503 98.2432C189.676 98.3174 189.806 98.4349 189.893 98.5957C189.979 98.7441 190.066 98.9606 190.152 99.2451L194.049 110.322H194.104L197.667 99.0225C197.741 98.7008 197.834 98.4906 197.945 98.3916C198.069 98.2803 198.267 98.1999 198.539 98.1504C198.811 98.1009 199.287 98.0762 199.968 98.0762C200.5 98.0762 200.939 98.1009 201.285 98.1504C201.644 98.1999 201.904 98.2926 202.064 98.4287C202.238 98.5648 202.324 98.7503 202.324 98.9854C202.324 99.208 202.275 99.474 202.176 99.7832L196.665 116Z" fill="#256BFD"/>
<g clip-path="url(#clip0_2801_7473)">
<path d="M42.2855 16.9041C54.8901 10.3197 70.4434 9.59166 84.1821 16.271C87.8112 18.0437 91.0838 20.1963 94.0001 22.6971C89.1721 15.4796 82.3999 9.37007 73.9104 5.25484C60.2689 -1.39283 45.0721 -1.51946 31.9814 3.6404L42.2855 16.9041Z" fill="#252118"/>
<path d="M22.9735 36.3723C26.8618 28.7433 32.6619 22.6971 39.5312 18.4869L29.0004 4.90662C19.0528 9.55999 10.5309 17.3473 5.24925 27.7619C2.39782 33.3333 0.745288 39.1896 0.129639 45.0459L18.7935 48.9395C19.5064 44.666 20.8997 40.4242 22.9735 36.3723Z" fill="#256BFD"/>
<path d="M26.959 82.1463C20.5109 73.4093 17.4326 62.5831 18.5019 51.7569L0.0324262 47.9266C-0.550821 63.5644 6.41574 78.9174 19.2472 88.8889L26.959 82.1463Z" fill="#D5E6BB"/>
<path d="M45.785 97.151L43.7437 99.4935C47.3727 100 51.0342 100.127 54.6309 99.8734C51.6499 99.2719 48.6689 98.3856 45.785 97.151Z" fill="#FFE2AC"/>
<path d="M43.2252 96.0114C37.3603 93.1307 32.4027 89.1421 28.482 84.4888L21.3534 90.7566C23.5244 92.2444 25.825 93.6056 28.2876 94.8085C32.3055 96.7711 36.453 98.1323 40.6654 98.987L43.2252 96.0114Z" fill="#FF7878"/>
<path d="M66.6846 29.8512L63.6388 29.0282L66.8467 17.3473L69.8925 18.1387L66.6846 29.8512Z" fill="url(#paint0_linear_2801_7473)"/>
<path d="M49.7381 33.175L46.9838 34.6945L40.8597 24.1532L43.614 22.6337L49.7381 33.175Z" fill="url(#paint1_linear_2801_7473)"/>
<path d="M37.6518 49.541L36.939 52.5483L24.8528 49.7626L25.598 46.7553L37.6518 49.541Z" fill="url(#paint2_linear_2801_7473)"/>
<path d="M39.7257 67.4897L41.6698 69.9272L31.8842 77.3979L29.9401 74.9604L39.7257 67.4897Z" fill="url(#paint3_linear_2801_7473)"/>
<path d="M50.0621 78.9807L53.1079 79.8038L49.8353 91.4847L46.7894 90.6616L50.0621 78.9807Z" fill="url(#paint4_linear_2801_7473)"/>
<path d="M76.049 45.679L74.1372 43.4631L59.1348 55.9671L46.109 41.5955L43.8732 43.5265L58.8432 60.0507L59.7829 59.2276L76.049 45.679Z" fill="url(#paint5_linear_2801_7473)"/>
<path d="M59.0375 59.6075C59.7892 59.6075 60.3985 59.0122 60.3985 58.2779C60.3985 57.5437 59.7892 56.9484 59.0375 56.9484C58.2859 56.9484 57.6766 57.5437 57.6766 58.2779C57.6766 59.0122 58.2859 59.6075 59.0375 59.6075Z" fill="white"/>
</g>
<defs>
<linearGradient id="paint0_linear_2801_7473" x1="59.4883" y1="-6.72752" x2="82.1862" y2="92.4019" gradientUnits="userSpaceOnUse">
<stop stop-color="#808285"/>
<stop offset="1" stop-color="#231F20"/>
</linearGradient>
<linearGradient id="paint1_linear_2801_7473" x1="37.9817" y1="-1.8028" x2="60.6792" y2="97.3254" gradientUnits="userSpaceOnUse">
<stop stop-color="#808285"/>
<stop offset="1" stop-color="#231F20"/>
</linearGradient>
<linearGradient id="paint2_linear_2801_7473" x1="19.9114" y1="2.3359" x2="42.6085" y2="101.462" gradientUnits="userSpaceOnUse">
<stop stop-color="#DFD557"/>
<stop offset="1" stop-color="#231F20"/>
</linearGradient>
<linearGradient id="paint3_linear_2801_7473" x1="19.0365" y1="2.5371" x2="41.7334" y2="101.663" gradientUnits="userSpaceOnUse">
<stop stop-color="#5746E4"/>
<stop offset="1" stop-color="#231F20"/>
</linearGradient>
<linearGradient id="paint4_linear_2801_7473" x1="29.5279" y1="0.130574" x2="52.2259" y2="99.2612" gradientUnits="userSpaceOnUse">
<stop stop-color="#808285"/>
<stop offset="1" stop-color="#231F20"/>
</linearGradient>
<linearGradient id="paint5_linear_2801_7473" x1="50.8704" y1="-6.16184" x2="65.2306" y2="77.7783" gradientUnits="userSpaceOnUse">
<stop stop-color="#5746E4"/>
<stop offset="1" stop-color="#5F36C5"/>
</linearGradient>
<clipPath id="clip0_2801_7473">
<rect width="94" height="100" fill="white"/>
</clipPath>
</defs>
</svg>
